<svg xmlns="http://www.w3.org/2000/svg" xmlns:xlink="http://www.w3.org/1999/xlink" width="1100" zoomAndPan="magnify" viewBox="0 0 824.88 225" height="300" preserveAspectRatio="xMidYMid meet" version="1.0"><defs><g/></defs><g fill="#ffffff" fill-opacity="1"><g transform="translate(2.589467, 143.664335)"><g><path d="M 28.984375 -62.59375 C 35.578125 -62.59375 41.34375 -61.285156 46.28125 -58.671875 C 51.21875 -56.054688 55.035156 -52.382812 57.734375 -47.65625 C 60.441406 -42.9375 61.796875 -37.484375 61.796875 -31.296875 C 61.796875 -25.171875 60.441406 -19.726562 57.734375 -14.96875 C 55.035156 -10.21875 51.203125 -6.535156 46.234375 -3.921875 C 41.273438 -1.304688 35.523438 0 28.984375 0 L 5.53125 0 L 5.53125 -62.59375 Z M 28 -13.203125 C 33.769531 -13.203125 38.257812 -14.773438 41.46875 -17.921875 C 44.675781 -21.078125 46.28125 -25.535156 46.28125 -31.296875 C 46.28125 -37.066406 44.675781 -41.554688 41.46875 -44.765625 C 38.257812 -47.972656 33.769531 -49.578125 28 -49.578125 L 20.78125 -49.578125 L 20.78125 -13.203125 Z M 28 -13.203125 "/></g></g></g><g fill="#ffffff" fill-opacity="1"><g transform="translate(67.413675, 143.664335)"><g><path d="M 52.4375 -25.6875 C 52.4375 -24.257812 52.347656 -22.769531 52.171875 -21.21875 L 17.65625 -21.21875 C 17.894531 -18.132812 18.890625 -15.773438 20.640625 -14.140625 C 22.398438 -12.503906 24.554688 -11.6875 27.109375 -11.6875 C 30.910156 -11.6875 33.554688 -13.289062 35.046875 -16.5 L 51.28125 -16.5 C 50.445312 -13.226562 48.941406 -10.285156 46.765625 -7.671875 C 44.597656 -5.054688 41.878906 -3.003906 38.609375 -1.515625 C 35.335938 -0.0234375 31.679688 0.71875 27.640625 0.71875 C 22.765625 0.71875 18.425781 -0.320312 14.625 -2.40625 C 10.820312 -4.488281 7.847656 -7.460938 5.703125 -11.328125 C 3.566406 -15.191406 2.5 -19.707031 2.5 -24.875 C 2.5 -30.050781 3.550781 -34.570312 5.65625 -38.4375 C 7.769531 -42.300781 10.726562 -45.269531 14.53125 -47.34375 C 18.332031 -49.425781 22.703125 -50.46875 27.640625 -50.46875 C 32.453125 -50.46875 36.734375 -49.457031 40.484375 -47.4375 C 44.234375 -45.414062 47.160156 -42.53125 49.265625 -38.78125 C 51.378906 -35.039062 52.4375 -30.675781 52.4375 -25.6875 Z M 36.828125 -29.6875 C 36.828125 -32.3125 35.9375 -34.394531 34.15625 -35.9375 C 32.375 -37.476562 30.144531 -38.25 27.46875 -38.25 C 24.90625 -38.25 22.75 -37.503906 21 -36.015625 C 19.25 -34.535156 18.164062 -32.425781 17.75 -29.6875 Z M 36.828125 -29.6875 "/></g></g></g><g fill="#ffffff" fill-opacity="1"><g transform="translate(122.340379, 143.664335)"><g><path d="M 25.765625 0.71875 C 21.429688 0.71875 17.566406 -0.0234375 14.171875 -1.515625 C 10.785156 -3.003906 8.109375 -5.039062 6.140625 -7.625 C 4.179688 -10.207031 3.085938 -13.101562 2.859375 -16.3125 L 17.921875 -16.3125 C 18.097656 -14.59375 18.898438 -13.195312 20.328125 -12.125 C 21.753906 -11.050781 23.507812 -10.515625 25.59375 -10.515625 C 27.5 -10.515625 28.96875 -10.882812 30 -11.625 C 31.039062 -12.375 31.5625 -13.34375 31.5625 -14.53125 C 31.5625 -15.957031 30.816406 -17.007812 29.328125 -17.6875 C 27.847656 -18.375 25.441406 -19.132812 22.109375 -19.96875 C 18.546875 -20.800781 15.570312 -21.675781 13.1875 -22.59375 C 10.8125 -23.519531 8.757812 -24.976562 7.03125 -26.96875 C 5.3125 -28.96875 4.453125 -31.660156 4.453125 -35.046875 C 4.453125 -37.898438 5.238281 -40.5 6.8125 -42.84375 C 8.394531 -45.195312 10.71875 -47.054688 13.78125 -48.421875 C 16.84375 -49.785156 20.484375 -50.46875 24.703125 -50.46875 C 30.941406 -50.46875 35.859375 -48.921875 39.453125 -45.828125 C 43.054688 -42.742188 45.125 -38.644531 45.65625 -33.53125 L 31.5625 -33.53125 C 31.320312 -35.25 30.5625 -36.613281 29.28125 -37.625 C 28.007812 -38.632812 26.332031 -39.140625 24.25 -39.140625 C 22.46875 -39.140625 21.097656 -38.796875 20.140625 -38.109375 C 19.191406 -37.429688 18.71875 -36.5 18.71875 -35.3125 C 18.71875 -33.882812 19.476562 -32.8125 21 -32.09375 C 22.519531 -31.382812 24.882812 -30.675781 28.09375 -29.96875 C 31.78125 -29.007812 34.78125 -28.066406 37.09375 -27.140625 C 39.414062 -26.222656 41.453125 -24.738281 43.203125 -22.6875 C 44.953125 -20.644531 45.859375 -17.898438 45.921875 -14.453125 C 45.921875 -11.535156 45.101562 -8.929688 43.46875 -6.640625 C 41.832031 -4.347656 39.484375 -2.546875 36.421875 -1.234375 C 33.359375 0.0664062 29.804688 0.71875 25.765625 0.71875 Z M 25.765625 0.71875 "/></g></g></g><g fill="#ffffff" fill-opacity="1"><g transform="translate(172.095403, 143.664335)"><g><path d="M 2.5 -24.875 C 2.5 -30.050781 3.550781 -34.570312 5.65625 -38.4375 C 7.769531 -42.300781 10.710938 -45.269531 14.484375 -47.34375 C 18.265625 -49.425781 22.59375 -50.46875 27.46875 -50.46875 C 33.707031 -50.46875 38.921875 -48.832031 43.109375 -45.5625 C 47.304688 -42.289062 50.054688 -37.6875 51.359375 -31.75 L 35.140625 -31.75 C 33.765625 -35.550781 31.117188 -37.453125 27.203125 -37.453125 C 24.398438 -37.453125 22.164062 -36.363281 20.5 -34.1875 C 18.84375 -32.019531 18.015625 -28.914062 18.015625 -24.875 C 18.015625 -20.832031 18.84375 -17.726562 20.5 -15.5625 C 22.164062 -13.394531 24.398438 -12.3125 27.203125 -12.3125 C 31.117188 -12.3125 33.765625 -14.210938 35.140625 -18.015625 L 51.359375 -18.015625 C 50.054688 -12.191406 47.289062 -7.613281 43.0625 -4.28125 C 38.84375 -0.945312 33.644531 0.71875 27.46875 0.71875 C 22.59375 0.71875 18.265625 -0.320312 14.484375 -2.40625 C 10.710938 -4.488281 7.769531 -7.460938 5.65625 -11.328125 C 3.550781 -15.191406 2.5 -19.707031 2.5 -24.875 Z M 2.5 -24.875 "/></g></g></g><g fill="#ffffff" fill-opacity="1"><g transform="translate(226.041273, 143.664335)"><g><path d="M 2.5 -24.96875 C 2.5 -30.082031 3.460938 -34.570312 5.390625 -38.4375 C 7.328125 -42.300781 9.957031 -45.269531 13.28125 -47.34375 C 16.613281 -49.425781 20.332031 -50.46875 24.4375 -50.46875 C 27.9375 -50.46875 31.007812 -49.753906 33.65625 -48.328125 C 36.300781 -46.898438 38.335938 -45.03125 39.765625 -42.71875 L 39.765625 -49.765625 L 55.015625 -49.765625 L 55.015625 0 L 39.765625 0 L 39.765625 -7.046875 C 38.285156 -4.722656 36.222656 -2.847656 33.578125 -1.421875 C 30.929688 0.00390625 27.851562 0.71875 24.34375 0.71875 C 20.300781 0.71875 16.613281 -0.335938 13.28125 -2.453125 C 9.957031 -4.566406 7.328125 -7.566406 5.390625 -11.453125 C 3.460938 -15.347656 2.5 -19.851562 2.5 -24.96875 Z M 39.765625 -24.875 C 39.765625 -28.6875 38.707031 -31.691406 36.59375 -33.890625 C 34.488281 -36.085938 31.921875 -37.1875 28.890625 -37.1875 C 25.859375 -37.1875 23.285156 -36.097656 21.171875 -33.921875 C 19.066406 -31.753906 18.015625 -28.769531 18.015625 -24.96875 C 18.015625 -21.164062 19.066406 -18.148438 21.171875 -15.921875 C 23.285156 -13.691406 25.859375 -12.578125 28.890625 -12.578125 C 31.921875 -12.578125 34.488281 -13.675781 36.59375 -15.875 C 38.707031 -18.070312 39.765625 -21.070312 39.765625 -24.875 Z M 39.765625 -24.875 "/></g></g></g><g fill="#ffffff" fill-opacity="1"><g transform="translate(286.585464, 143.664335)"><g><path d="M 20.78125 -41.46875 C 22.5625 -44.195312 24.789062 -46.347656 27.46875 -47.921875 C 30.144531 -49.503906 33.113281 -50.296875 36.375 -50.296875 L 36.375 -34.15625 L 32.1875 -34.15625 C 28.382812 -34.15625 25.53125 -33.335938 23.625 -31.703125 C 21.726562 -30.066406 20.78125 -27.195312 20.78125 -23.09375 L 20.78125 0 L 5.53125 0 L 5.53125 -49.765625 L 20.78125 -49.765625 Z M 20.78125 -41.46875 "/></g></g></g><g fill="#ffffff" fill-opacity="1"><g transform="translate(324.748817, 143.664335)"><g><path d="M 24.4375 -50.46875 C 27.9375 -50.46875 31.007812 -49.753906 33.65625 -48.328125 C 36.300781 -46.898438 38.335938 -45.03125 39.765625 -42.71875 L 39.765625 -49.765625 L 55.015625 -49.765625 L 55.015625 -0.09375 C 55.015625 4.488281 54.109375 8.632812 52.296875 12.34375 C 50.484375 16.0625 47.71875 19.019531 44 21.21875 C 40.289062 23.414062 35.671875 24.515625 30.140625 24.515625 C 22.765625 24.515625 16.785156 22.773438 12.203125 19.296875 C 7.628906 15.828125 5.019531 11.117188 4.375 5.171875 L 19.4375 5.171875 C 19.914062 7.078125 21.046875 8.578125 22.828125 9.671875 C 24.609375 10.773438 26.804688 11.328125 29.421875 11.328125 C 32.578125 11.328125 35.085938 10.421875 36.953125 8.609375 C 38.828125 6.796875 39.765625 3.894531 39.765625 -0.09375 L 39.765625 -7.140625 C 38.285156 -4.816406 36.234375 -2.925781 33.609375 -1.46875 C 30.992188 -0.0078125 27.9375 0.71875 24.4375 0.71875 C 20.332031 0.71875 16.613281 -0.335938 13.28125 -2.453125 C 9.957031 -4.566406 7.328125 -7.566406 5.390625 -11.453125 C 3.460938 -15.347656 2.5 -19.851562 2.5 -24.96875 C 2.5 -30.082031 3.460938 -34.570312 5.390625 -38.4375 C 7.328125 -42.300781 9.957031 -45.269531 13.28125 -47.34375 C 16.613281 -49.425781 20.332031 -50.46875 24.4375 -50.46875 Z M 39.765625 -24.875 C 39.765625 -28.6875 38.707031 -31.691406 36.59375 -33.890625 C 34.488281 -36.085938 31.921875 -37.1875 28.890625 -37.1875 C 25.859375 -37.1875 23.285156 -36.097656 21.171875 -33.921875 C 19.066406 -31.753906 18.015625 -28.769531 18.015625 -24.96875 C 18.015625 -21.164062 19.066406 -18.148438 21.171875 -15.921875 C 23.285156 -13.691406 25.859375 -12.578125 28.890625 -12.578125 C 31.921875 -12.578125 34.488281 -13.675781 36.59375 -15.875 C 38.707031 -18.070312 39.765625 -21.070312 39.765625 -24.875 Z M 39.765625 -24.875 "/></g></g></g><g fill="#ffffff" fill-opacity="1"><g transform="translate(385.293008, 143.664335)"><g><path d="M 2.5 -24.96875 C 2.5 -30.082031 3.460938 -34.570312 5.390625 -38.4375 C 7.328125 -42.300781 9.957031 -45.269531 13.28125 -47.34375 C 16.613281 -49.425781 20.332031 -50.46875 24.4375 -50.46875 C 27.9375 -50.46875 31.007812 -49.753906 33.65625 -48.328125 C 36.300781 -46.898438 38.335938 -45.03125 39.765625 -42.71875 L 39.765625 -49.765625 L 55.015625 -49.765625 L 55.015625 0 L 39.765625 0 L 39.765625 -7.046875 C 38.285156 -4.722656 36.222656 -2.847656 33.578125 -1.421875 C 30.929688 0.00390625 27.851562 0.71875 24.34375 0.71875 C 20.300781 0.71875 16.613281 -0.335938 13.28125 -2.453125 C 9.957031 -4.566406 7.328125 -7.566406 5.390625 -11.453125 C 3.460938 -15.347656 2.5 -19.851562 2.5 -24.96875 Z M 39.765625 -24.875 C 39.765625 -28.6875 38.707031 -31.691406 36.59375 -33.890625 C 34.488281 -36.085938 31.921875 -37.1875 28.890625 -37.1875 C 25.859375 -37.1875 23.285156 -36.097656 21.171875 -33.921875 C 19.066406 -31.753906 18.015625 -28.769531 18.015625 -24.96875 C 18.015625 -21.164062 19.066406 -18.148438 21.171875 -15.921875 C 23.285156 -13.691406 25.859375 -12.578125 28.890625 -12.578125 C 31.921875 -12.578125 34.488281 -13.675781 36.59375 -15.875 C 38.707031 -18.070312 39.765625 -21.070312 39.765625 -24.875 Z M 39.765625 -24.875 "/></g></g></g><g fill="#ffffff" fill-opacity="1"><g transform="translate(445.837223, 143.664335)"><g><path d="M 50.5625 -62.59375 L 50.5625 -50.375 L 33.96875 -50.375 L 33.96875 0 L 18.71875 0 L 18.71875 -50.375 L 2.140625 -50.375 L 2.140625 -62.59375 Z M 50.5625 -62.59375 "/></g></g></g><g fill="#ffffff" fill-opacity="1"><g transform="translate(498.53477, 143.664335)"><g><path d="M 54.65625 -49.765625 L 54.65625 0 L 39.40625 0 L 39.40625 -6.78125 C 37.863281 -4.582031 35.769531 -2.8125 33.125 -1.46875 C 30.476562 -0.132812 27.550781 0.53125 24.34375 0.53125 C 20.539062 0.53125 17.179688 -0.3125 14.265625 -2 C 11.347656 -3.695312 9.085938 -6.148438 7.484375 -9.359375 C 5.878906 -12.566406 5.078125 -16.34375 5.078125 -20.6875 L 5.078125 -49.765625 L 20.234375 -49.765625 L 20.234375 -22.734375 C 20.234375 -19.410156 21.09375 -16.828125 22.8125 -14.984375 C 24.539062 -13.140625 26.863281 -12.21875 29.78125 -12.21875 C 32.75 -12.21875 35.09375 -13.140625 36.8125 -14.984375 C 38.539062 -16.828125 39.40625 -19.410156 39.40625 -22.734375 L 39.40625 -49.765625 Z M 54.65625 -49.765625 "/></g></g></g><g fill="#ffffff" fill-opacity="1"><g transform="translate(558.633141, 143.664335)"><g><path d="M 64.296875 -62.59375 L 42.09375 0 L 23 0 L 0.796875 -62.59375 L 17.03125 -62.59375 L 32.546875 -15.34375 L 48.15625 -62.59375 Z M 64.296875 -62.59375 "/></g></g></g><g fill="#ffffff" fill-opacity="1"><g transform="translate(623.72485, 143.664335)"><g><path d="M 13.203125 -54.9375 C 10.523438 -54.9375 8.335938 -55.722656 6.640625 -57.296875 C 4.953125 -58.867188 4.109375 -60.816406 4.109375 -63.140625 C 4.109375 -65.515625 4.953125 -67.488281 6.640625 -69.0625 C 8.335938 -70.632812 10.523438 -71.421875 13.203125 -71.421875 C 15.816406 -71.421875 17.96875 -70.632812 19.65625 -69.0625 C 21.351562 -67.488281 22.203125 -65.515625 22.203125 -63.140625 C 22.203125 -60.816406 21.351562 -58.867188 19.65625 -57.296875 C 17.96875 -55.722656 15.816406 -54.9375 13.203125 -54.9375 Z M 20.78125 -49.765625 L 20.78125 0 L 5.53125 0 L 5.53125 -49.765625 Z M 20.78125 -49.765625 "/></g></g></g><g fill="#ffffff" fill-opacity="1"><g transform="translate(650.029022, 143.664335)"><g><path d="M 2.5 -24.96875 C 2.5 -30.082031 3.460938 -34.570312 5.390625 -38.4375 C 7.328125 -42.300781 9.957031 -45.269531 13.28125 -47.34375 C 16.613281 -49.425781 20.332031 -50.46875 24.4375 -50.46875 C 27.707031 -50.46875 30.691406 -49.785156 33.390625 -48.421875 C 36.097656 -47.054688 38.222656 -45.210938 39.765625 -42.890625 L 39.765625 -65.984375 L 55.015625 -65.984375 L 55.015625 0 L 39.765625 0 L 39.765625 -7.140625 C 38.335938 -4.753906 36.300781 -2.847656 33.65625 -1.421875 C 31.007812 0.00390625 27.9375 0.71875 24.4375 0.71875 C 20.332031 0.71875 16.613281 -0.335938 13.28125 -2.453125 C 9.957031 -4.566406 7.328125 -7.566406 5.390625 -11.453125 C 3.460938 -15.347656 2.5 -19.851562 2.5 -24.96875 Z M 39.765625 -24.875 C 39.765625 -28.6875 38.707031 -31.691406 36.59375 -33.890625 C 34.488281 -36.085938 31.921875 -37.1875 28.890625 -37.1875 C 25.859375 -37.1875 23.285156 -36.097656 21.171875 -33.921875 C 19.066406 -31.753906 18.015625 -28.769531 18.015625 -24.96875 C 18.015625 -21.164062 19.066406 -18.148438 21.171875 -15.921875 C 23.285156 -13.691406 25.859375 -12.578125 28.890625 -12.578125 C 31.921875 -12.578125 34.488281 -13.675781 36.59375 -15.875 C 38.707031 -18.070312 39.765625 -21.070312 39.765625 -24.875 Z M 39.765625 -24.875 "/></g></g></g><g fill="#ffffff" fill-opacity="1"><g transform="translate(710.573236, 143.664335)"><g><path d="M 52.4375 -25.6875 C 52.4375 -24.257812 52.347656 -22.769531 52.171875 -21.21875 L 17.65625 -21.21875 C 17.894531 -18.132812 18.890625 -15.773438 20.640625 -14.140625 C 22.398438 -12.503906 24.554688 -11.6875 27.109375 -11.6875 C 30.910156 -11.6875 33.554688 -13.289062 35.046875 -16.5 L 51.28125 -16.5 C 50.445312 -13.226562 48.941406 -10.285156 46.765625 -7.671875 C 44.597656 -5.054688 41.878906 -3.003906 38.609375 -1.515625 C 35.335938 -0.0234375 31.679688 0.71875 27.640625 0.71875 C 22.765625 0.71875 18.425781 -0.320312 14.625 -2.40625 C 10.820312 -4.488281 7.847656 -7.460938 5.703125 -11.328125 C 3.566406 -15.191406 2.5 -19.707031 2.5 -24.875 C 2.5 -30.050781 3.550781 -34.570312 5.65625 -38.4375 C 7.769531 -42.300781 10.726562 -45.269531 14.53125 -47.34375 C 18.332031 -49.425781 22.703125 -50.46875 27.640625 -50.46875 C 32.453125 -50.46875 36.734375 -49.457031 40.484375 -47.4375 C 44.234375 -45.414062 47.160156 -42.53125 49.265625 -38.78125 C 51.378906 -35.039062 52.4375 -30.675781 52.4375 -25.6875 Z M 36.828125 -29.6875 C 36.828125 -32.3125 35.9375 -34.394531 34.15625 -35.9375 C 32.375 -37.476562 30.144531 -38.25 27.46875 -38.25 C 24.90625 -38.25 22.75 -37.503906 21 -36.015625 C 19.25 -34.535156 18.164062 -32.425781 17.75 -29.6875 Z M 36.828125 -29.6875 "/></g></g></g><g fill="#ffffff" fill-opacity="1"><g transform="translate(765.499951, 143.664335)"><g><path d="M 28.171875 0.71875 C 23.296875 0.71875 18.910156 -0.320312 15.015625 -2.40625 C 11.128906 -4.488281 8.070312 -7.460938 5.84375 -11.328125 C 3.613281 -15.191406 2.5 -19.707031 2.5 -24.875 C 2.5 -29.988281 3.628906 -34.492188 5.890625 -38.390625 C 8.148438 -42.285156 11.238281 -45.269531 15.15625 -47.34375 C 19.082031 -49.425781 23.484375 -50.46875 28.359375 -50.46875 C 33.234375 -50.46875 37.628906 -49.425781 41.546875 -47.34375 C 45.472656 -45.269531 48.566406 -42.285156 50.828125 -38.390625 C 53.085938 -34.492188 54.21875 -29.988281 54.21875 -24.875 C 54.21875 -19.757812 53.070312 -15.253906 50.78125 -11.359375 C 48.488281 -7.472656 45.363281 -4.488281 41.40625 -2.40625 C 37.457031 -0.320312 33.046875 0.71875 28.171875 0.71875 Z M 28.171875 -12.484375 C 31.085938 -12.484375 33.570312 -13.550781 35.625 -15.6875 C 37.675781 -17.832031 38.703125 -20.894531 38.703125 -24.875 C 38.703125 -28.863281 37.703125 -31.925781 35.703125 -34.0625 C 33.710938 -36.207031 31.265625 -37.28125 28.359375 -37.28125 C 25.378906 -37.28125 22.910156 -36.222656 20.953125 -34.109375 C 18.992188 -31.992188 18.015625 -28.914062 18.015625 -24.875 C 18.015625 -20.894531 18.976562 -17.832031 20.90625 -15.6875 C 22.84375 -13.550781 25.265625 -12.484375 28.171875 -12.484375 Z M 28.171875 -12.484375 "/></g></g></g></svg>