<svg xmlns="http://www.w3.org/2000/svg" xmlns:xlink="http://www.w3.org/1999/xlink" width="1100" zoomAndPan="magnify" viewBox="0 0 824.88 225" height="300" preserveAspectRatio="xMidYMid meet" version="1.0"><defs><g/></defs><g fill="#000000" fill-opacity="1"><g transform="translate(2.774069, 142.618475)"><g><path d="M 28.96875 -62.59375 C 35.570312 -62.59375 41.335938 -61.28125 46.265625 -58.65625 C 51.203125 -56.039062 55.019531 -52.367188 57.71875 -47.640625 C 60.425781 -42.921875 61.78125 -37.472656 61.78125 -31.296875 C 61.78125 -25.171875 60.425781 -19.726562 57.71875 -14.96875 C 55.019531 -10.21875 51.1875 -6.535156 46.21875 -3.921875 C 41.257812 -1.304688 35.507812 0 28.96875 0 L 5.53125 0 L 5.53125 -62.59375 Z M 28 -13.1875 C 33.757812 -13.1875 38.242188 -14.757812 41.453125 -17.90625 C 44.660156 -21.0625 46.265625 -25.523438 46.265625 -31.296875 C 46.265625 -37.054688 44.660156 -41.539062 41.453125 -44.75 C 38.242188 -47.96875 33.757812 -49.578125 28 -49.578125 L 20.765625 -49.578125 L 20.765625 -13.1875 Z M 28 -13.1875 "/></g></g></g><g fill="#000000" fill-opacity="1"><g transform="translate(67.561973, 142.618475)"><g><path d="M 52.421875 -25.671875 C 52.421875 -24.242188 52.332031 -22.757812 52.15625 -21.21875 L 17.65625 -21.21875 C 17.894531 -18.125 18.890625 -15.757812 20.640625 -14.125 C 22.390625 -12.488281 24.546875 -11.671875 27.109375 -11.671875 C 30.910156 -11.671875 33.550781 -13.28125 35.03125 -16.5 L 51.265625 -16.5 C 50.429688 -13.226562 48.929688 -10.285156 46.765625 -7.671875 C 44.597656 -5.054688 41.878906 -3.003906 38.609375 -1.515625 C 35.335938 -0.0234375 31.679688 0.71875 27.640625 0.71875 C 22.765625 0.71875 18.425781 -0.320312 14.625 -2.40625 C 10.820312 -4.488281 7.847656 -7.460938 5.703125 -11.328125 C 3.566406 -15.191406 2.5 -19.707031 2.5 -24.875 C 2.5 -30.039062 3.550781 -34.554688 5.65625 -38.421875 C 7.769531 -42.285156 10.726562 -45.257812 14.53125 -47.34375 C 18.332031 -49.425781 22.703125 -50.46875 27.640625 -50.46875 C 32.453125 -50.46875 36.726562 -49.457031 40.46875 -47.4375 C 44.21875 -45.414062 47.144531 -42.53125 49.25 -38.78125 C 51.363281 -35.039062 52.421875 -30.671875 52.421875 -25.671875 Z M 36.828125 -29.6875 C 36.828125 -32.300781 35.929688 -34.378906 34.140625 -35.921875 C 32.359375 -37.472656 30.128906 -38.25 27.453125 -38.25 C 24.898438 -38.25 22.742188 -37.503906 20.984375 -36.015625 C 19.234375 -34.535156 18.148438 -32.425781 17.734375 -29.6875 Z M 36.828125 -29.6875 "/></g></g></g><g fill="#000000" fill-opacity="1"><g transform="translate(122.457915, 142.618475)"><g><path d="M 25.765625 0.71875 C 21.421875 0.71875 17.554688 -0.0234375 14.171875 -1.515625 C 10.785156 -3.003906 8.109375 -5.039062 6.140625 -7.625 C 4.179688 -10.207031 3.085938 -13.101562 2.859375 -16.3125 L 17.921875 -16.3125 C 18.097656 -14.59375 18.898438 -13.195312 20.328125 -12.125 C 21.753906 -11.050781 23.507812 -10.515625 25.59375 -10.515625 C 27.488281 -10.515625 28.957031 -10.882812 30 -11.625 C 31.039062 -12.375 31.5625 -13.34375 31.5625 -14.53125 C 31.5625 -15.957031 30.816406 -17.007812 29.328125 -17.6875 C 27.847656 -18.375 25.441406 -19.132812 22.109375 -19.96875 C 18.546875 -20.800781 15.570312 -21.675781 13.1875 -22.59375 C 10.8125 -23.519531 8.757812 -24.976562 7.03125 -26.96875 C 5.3125 -28.957031 4.453125 -31.644531 4.453125 -35.03125 C 4.453125 -37.882812 5.238281 -40.484375 6.8125 -42.828125 C 8.394531 -45.179688 10.710938 -47.039062 13.765625 -48.40625 C 16.828125 -49.78125 20.472656 -50.46875 24.703125 -50.46875 C 30.941406 -50.46875 35.859375 -48.921875 39.453125 -45.828125 C 43.046875 -42.734375 45.109375 -38.628906 45.640625 -33.515625 L 31.5625 -33.515625 C 31.320312 -35.242188 30.5625 -36.613281 29.28125 -37.625 C 28.007812 -38.632812 26.332031 -39.140625 24.25 -39.140625 C 22.46875 -39.140625 21.097656 -38.796875 20.140625 -38.109375 C 19.191406 -37.429688 18.71875 -36.5 18.71875 -35.3125 C 18.71875 -33.882812 19.472656 -32.8125 20.984375 -32.09375 C 22.503906 -31.382812 24.867188 -30.671875 28.078125 -29.953125 C 31.765625 -29.003906 34.765625 -28.066406 37.078125 -27.140625 C 39.398438 -26.222656 41.4375 -24.738281 43.1875 -22.6875 C 44.945312 -20.632812 45.859375 -17.882812 45.921875 -14.4375 C 45.921875 -11.53125 45.101562 -8.929688 43.46875 -6.640625 C 41.832031 -4.347656 39.484375 -2.546875 36.421875 -1.234375 C 33.359375 0.0664062 29.804688 0.71875 25.765625 0.71875 Z M 25.765625 0.71875 "/></g></g></g><g fill="#000000" fill-opacity="1"><g transform="translate(172.185084, 142.618475)"><g><path d="M 2.5 -24.875 C 2.5 -30.039062 3.550781 -34.554688 5.65625 -38.421875 C 7.769531 -42.285156 10.710938 -45.257812 14.484375 -47.34375 C 18.265625 -49.425781 22.585938 -50.46875 27.453125 -50.46875 C 33.703125 -50.46875 38.921875 -48.832031 43.109375 -45.5625 C 47.296875 -42.289062 50.046875 -37.679688 51.359375 -31.734375 L 35.125 -31.734375 C 33.757812 -35.546875 31.113281 -37.453125 27.1875 -37.453125 C 24.394531 -37.453125 22.164062 -36.363281 20.5 -34.1875 C 18.84375 -32.019531 18.015625 -28.914062 18.015625 -24.875 C 18.015625 -20.832031 18.84375 -17.722656 20.5 -15.546875 C 22.164062 -13.378906 24.394531 -12.296875 27.1875 -12.296875 C 31.113281 -12.296875 33.757812 -14.203125 35.125 -18.015625 L 51.359375 -18.015625 C 50.046875 -12.179688 47.28125 -7.597656 43.0625 -4.265625 C 38.84375 -0.941406 33.640625 0.71875 27.453125 0.71875 C 22.585938 0.71875 18.265625 -0.320312 14.484375 -2.40625 C 10.710938 -4.488281 7.769531 -7.460938 5.65625 -11.328125 C 3.550781 -15.191406 2.5 -19.707031 2.5 -24.875 Z M 2.5 -24.875 "/></g></g></g><g fill="#000000" fill-opacity="1"><g transform="translate(226.100737, 142.618475)"><g><path d="M 2.5 -24.96875 C 2.5 -30.070312 3.460938 -34.554688 5.390625 -38.421875 C 7.328125 -42.285156 9.957031 -45.257812 13.28125 -47.34375 C 16.613281 -49.425781 20.328125 -50.46875 24.421875 -50.46875 C 27.929688 -50.46875 31.007812 -49.753906 33.65625 -48.328125 C 36.300781 -46.898438 38.335938 -45.023438 39.765625 -42.703125 L 39.765625 -49.75 L 55.015625 -49.75 L 55.015625 0 L 39.765625 0 L 39.765625 -7.046875 C 38.273438 -4.722656 36.207031 -2.847656 33.5625 -1.421875 C 30.914062 0.00390625 27.84375 0.71875 24.34375 0.71875 C 20.300781 0.71875 16.613281 -0.332031 13.28125 -2.4375 C 9.957031 -4.550781 7.328125 -7.554688 5.390625 -11.453125 C 3.460938 -15.347656 2.5 -19.851562 2.5 -24.96875 Z M 39.765625 -24.875 C 39.765625 -28.675781 38.707031 -31.675781 36.59375 -33.875 C 34.488281 -36.070312 31.921875 -37.171875 28.890625 -37.171875 C 25.859375 -37.171875 23.285156 -36.085938 21.171875 -33.921875 C 19.066406 -31.753906 18.015625 -28.769531 18.015625 -24.96875 C 18.015625 -21.15625 19.066406 -18.132812 21.171875 -15.90625 C 23.285156 -13.6875 25.859375 -12.578125 28.890625 -12.578125 C 31.921875 -12.578125 34.488281 -13.675781 36.59375 -15.875 C 38.707031 -18.070312 39.765625 -21.070312 39.765625 -24.875 Z M 39.765625 -24.875 "/></g></g></g><g fill="#000000" fill-opacity="1"><g transform="translate(286.611044, 142.618475)"><g><path d="M 20.765625 -41.453125 C 22.554688 -44.191406 24.785156 -46.347656 27.453125 -47.921875 C 30.128906 -49.492188 33.101562 -50.28125 36.375 -50.28125 L 36.375 -34.140625 L 32.1875 -34.140625 C 28.382812 -34.140625 25.53125 -33.320312 23.625 -31.6875 C 21.71875 -30.0625 20.765625 -27.195312 20.765625 -23.09375 L 20.765625 0 L 5.53125 0 L 5.53125 -49.75 L 20.765625 -49.75 Z M 20.765625 -41.453125 "/></g></g></g><g fill="#000000" fill-opacity="1"><g transform="translate(324.753048, 142.618475)"><g><path d="M 24.421875 -50.46875 C 27.929688 -50.46875 31.007812 -49.753906 33.65625 -48.328125 C 36.300781 -46.898438 38.335938 -45.023438 39.765625 -42.703125 L 39.765625 -49.75 L 55.015625 -49.75 L 55.015625 -0.09375 C 55.015625 4.488281 54.109375 8.632812 52.296875 12.34375 C 50.484375 16.0625 47.71875 19.019531 44 21.21875 C 40.28125 23.414062 35.660156 24.515625 30.140625 24.515625 C 22.765625 24.515625 16.785156 22.773438 12.203125 19.296875 C 7.628906 15.828125 5.019531 11.117188 4.375 5.171875 L 19.4375 5.171875 C 19.914062 7.078125 21.046875 8.578125 22.828125 9.671875 C 24.609375 10.773438 26.804688 11.328125 29.421875 11.328125 C 32.566406 11.328125 35.078125 10.421875 36.953125 8.609375 C 38.828125 6.796875 39.765625 3.894531 39.765625 -0.09375 L 39.765625 -7.125 C 38.273438 -4.8125 36.222656 -2.925781 33.609375 -1.46875 C 30.992188 -0.0078125 27.929688 0.71875 24.421875 0.71875 C 20.328125 0.71875 16.613281 -0.332031 13.28125 -2.4375 C 9.957031 -4.550781 7.328125 -7.554688 5.390625 -11.453125 C 3.460938 -15.347656 2.5 -19.851562 2.5 -24.96875 C 2.5 -30.070312 3.460938 -34.554688 5.390625 -38.421875 C 7.328125 -42.285156 9.957031 -45.257812 13.28125 -47.34375 C 16.613281 -49.425781 20.328125 -50.46875 24.421875 -50.46875 Z M 39.765625 -24.875 C 39.765625 -28.675781 38.707031 -31.675781 36.59375 -33.875 C 34.488281 -36.070312 31.921875 -37.171875 28.890625 -37.171875 C 25.859375 -37.171875 23.285156 -36.085938 21.171875 -33.921875 C 19.066406 -31.753906 18.015625 -28.769531 18.015625 -24.96875 C 18.015625 -21.15625 19.066406 -18.132812 21.171875 -15.90625 C 23.285156 -13.6875 25.859375 -12.578125 28.890625 -12.578125 C 31.921875 -12.578125 34.488281 -13.675781 36.59375 -15.875 C 38.707031 -18.070312 39.765625 -21.070312 39.765625 -24.875 Z M 39.765625 -24.875 "/></g></g></g><g fill="#000000" fill-opacity="1"><g transform="translate(385.263355, 142.618475)"><g><path d="M 2.5 -24.96875 C 2.5 -30.070312 3.460938 -34.554688 5.390625 -38.421875 C 7.328125 -42.285156 9.957031 -45.257812 13.28125 -47.34375 C 16.613281 -49.425781 20.328125 -50.46875 24.421875 -50.46875 C 27.929688 -50.46875 31.007812 -49.753906 33.65625 -48.328125 C 36.300781 -46.898438 38.335938 -45.023438 39.765625 -42.703125 L 39.765625 -49.75 L 55.015625 -49.75 L 55.015625 0 L 39.765625 0 L 39.765625 -7.046875 C 38.273438 -4.722656 36.207031 -2.847656 33.5625 -1.421875 C 30.914062 0.00390625 27.84375 0.71875 24.34375 0.71875 C 20.300781 0.71875 16.613281 -0.332031 13.28125 -2.4375 C 9.957031 -4.550781 7.328125 -7.554688 5.390625 -11.453125 C 3.460938 -15.347656 2.5 -19.851562 2.5 -24.96875 Z M 39.765625 -24.875 C 39.765625 -28.675781 38.707031 -31.675781 36.59375 -33.875 C 34.488281 -36.070312 31.921875 -37.171875 28.890625 -37.171875 C 25.859375 -37.171875 23.285156 -36.085938 21.171875 -33.921875 C 19.066406 -31.753906 18.015625 -28.769531 18.015625 -24.96875 C 18.015625 -21.15625 19.066406 -18.132812 21.171875 -15.90625 C 23.285156 -13.6875 25.859375 -12.578125 28.890625 -12.578125 C 31.921875 -12.578125 34.488281 -13.675781 36.59375 -15.875 C 38.707031 -18.070312 39.765625 -21.070312 39.765625 -24.875 Z M 39.765625 -24.875 "/></g></g></g><g fill="#000000" fill-opacity="1"><g transform="translate(445.773662, 142.618475)"><g><path d="M 50.546875 -62.59375 L 50.546875 -50.375 L 33.96875 -50.375 L 33.96875 0 L 18.71875 0 L 18.71875 -50.375 L 2.140625 -50.375 L 2.140625 -62.59375 Z M 50.546875 -62.59375 "/></g></g></g><g fill="#000000" fill-opacity="1"><g transform="translate(498.4417, 142.618475)"><g><path d="M 54.65625 -49.75 L 54.65625 0 L 39.40625 0 L 39.40625 -6.78125 C 37.863281 -4.582031 35.769531 -2.8125 33.125 -1.46875 C 30.476562 -0.132812 27.550781 0.53125 24.34375 0.53125 C 20.539062 0.53125 17.179688 -0.3125 14.265625 -2 C 11.347656 -3.695312 9.085938 -6.148438 7.484375 -9.359375 C 5.878906 -12.566406 5.078125 -16.34375 5.078125 -20.6875 L 5.078125 -49.75 L 20.234375 -49.75 L 20.234375 -22.734375 C 20.234375 -19.398438 21.09375 -16.8125 22.8125 -14.96875 C 24.539062 -13.132812 26.863281 -12.21875 29.78125 -12.21875 C 32.75 -12.21875 35.09375 -13.132812 36.8125 -14.96875 C 38.539062 -16.8125 39.40625 -19.398438 39.40625 -22.734375 L 39.40625 -49.75 Z M 54.65625 -49.75 "/></g></g></g><g fill="#000000" fill-opacity="1"><g transform="translate(558.506419, 142.618475)"><g><path d="M 64.28125 -62.59375 L 42.078125 0 L 23 0 L 0.796875 -62.59375 L 17.03125 -62.59375 L 32.546875 -15.328125 L 48.140625 -62.59375 Z M 64.28125 -62.59375 "/></g></g></g><g fill="#000000" fill-opacity="1"><g transform="translate(623.561648, 142.618475)"><g><path d="M 13.1875 -54.921875 C 10.519531 -54.921875 8.335938 -55.707031 6.640625 -57.28125 C 4.941406 -58.851562 4.09375 -60.800781 4.09375 -63.125 C 4.09375 -65.5 4.941406 -67.472656 6.640625 -69.046875 C 8.335938 -70.628906 10.519531 -71.421875 13.1875 -71.421875 C 15.8125 -71.421875 17.96875 -70.628906 19.65625 -69.046875 C 21.351562 -67.472656 22.203125 -65.5 22.203125 -63.125 C 22.203125 -60.800781 21.351562 -58.851562 19.65625 -57.28125 C 17.96875 -55.707031 15.8125 -54.921875 13.1875 -54.921875 Z M 20.765625 -49.75 L 20.765625 0 L 5.53125 0 L 5.53125 -49.75 Z M 20.765625 -49.75 "/></g></g></g><g fill="#000000" fill-opacity="1"><g transform="translate(649.851112, 142.618475)"><g><path d="M 2.5 -24.96875 C 2.5 -30.070312 3.460938 -34.554688 5.390625 -38.421875 C 7.328125 -42.285156 9.957031 -45.257812 13.28125 -47.34375 C 16.613281 -49.425781 20.328125 -50.46875 24.421875 -50.46875 C 27.691406 -50.46875 30.679688 -49.78125 33.390625 -48.40625 C 36.097656 -47.039062 38.222656 -45.203125 39.765625 -42.890625 L 39.765625 -65.96875 L 55.015625 -65.96875 L 55.015625 0 L 39.765625 0 L 39.765625 -7.125 C 38.335938 -4.75 36.300781 -2.847656 33.65625 -1.421875 C 31.007812 0.00390625 27.929688 0.71875 24.421875 0.71875 C 20.328125 0.71875 16.613281 -0.332031 13.28125 -2.4375 C 9.957031 -4.550781 7.328125 -7.554688 5.390625 -11.453125 C 3.460938 -15.347656 2.5 -19.851562 2.5 -24.96875 Z M 39.765625 -24.875 C 39.765625 -28.675781 38.707031 -31.675781 36.59375 -33.875 C 34.488281 -36.070312 31.921875 -37.171875 28.890625 -37.171875 C 25.859375 -37.171875 23.285156 -36.085938 21.171875 -33.921875 C 19.066406 -31.753906 18.015625 -28.769531 18.015625 -24.96875 C 18.015625 -21.15625 19.066406 -18.132812 21.171875 -15.90625 C 23.285156 -13.6875 25.859375 -12.578125 28.890625 -12.578125 C 31.921875 -12.578125 34.488281 -13.675781 36.59375 -15.875 C 38.707031 -18.070312 39.765625 -21.070312 39.765625 -24.875 Z M 39.765625 -24.875 "/></g></g></g><g fill="#000000" fill-opacity="1"><g transform="translate(710.36142, 142.618475)"><g><path d="M 52.421875 -25.671875 C 52.421875 -24.242188 52.332031 -22.757812 52.15625 -21.21875 L 17.65625 -21.21875 C 17.894531 -18.125 18.890625 -15.757812 20.640625 -14.125 C 22.390625 -12.488281 24.546875 -11.671875 27.109375 -11.671875 C 30.910156 -11.671875 33.550781 -13.28125 35.03125 -16.5 L 51.265625 -16.5 C 50.429688 -13.226562 48.929688 -10.285156 46.765625 -7.671875 C 44.597656 -5.054688 41.878906 -3.003906 38.609375 -1.515625 C 35.335938 -0.0234375 31.679688 0.71875 27.640625 0.71875 C 22.765625 0.71875 18.425781 -0.320312 14.625 -2.40625 C 10.820312 -4.488281 7.847656 -7.460938 5.703125 -11.328125 C 3.566406 -15.191406 2.5 -19.707031 2.5 -24.875 C 2.5 -30.039062 3.550781 -34.554688 5.65625 -38.421875 C 7.769531 -42.285156 10.726562 -45.257812 14.53125 -47.34375 C 18.332031 -49.425781 22.703125 -50.46875 27.640625 -50.46875 C 32.453125 -50.46875 36.726562 -49.457031 40.46875 -47.4375 C 44.21875 -45.414062 47.144531 -42.53125 49.25 -38.78125 C 51.363281 -35.039062 52.421875 -30.671875 52.421875 -25.671875 Z M 36.828125 -29.6875 C 36.828125 -32.300781 35.929688 -34.378906 34.140625 -35.921875 C 32.359375 -37.472656 30.128906 -38.25 27.453125 -38.25 C 24.898438 -38.25 22.742188 -37.503906 20.984375 -36.015625 C 19.234375 -34.535156 18.148438 -32.425781 17.734375 -29.6875 Z M 36.828125 -29.6875 "/></g></g></g><g fill="#000000" fill-opacity="1"><g transform="translate(765.257362, 142.618475)"><g><path d="M 28.171875 0.71875 C 23.296875 0.71875 18.910156 -0.320312 15.015625 -2.40625 C 11.128906 -4.488281 8.070312 -7.460938 5.84375 -11.328125 C 3.613281 -15.191406 2.5 -19.707031 2.5 -24.875 C 2.5 -29.988281 3.625 -34.488281 5.875 -38.375 C 8.132812 -42.269531 11.226562 -45.257812 15.15625 -47.34375 C 19.082031 -49.425781 23.484375 -50.46875 28.359375 -50.46875 C 33.222656 -50.46875 37.617188 -49.425781 41.546875 -47.34375 C 45.472656 -45.257812 48.5625 -42.269531 50.8125 -38.375 C 53.070312 -34.488281 54.203125 -29.988281 54.203125 -24.875 C 54.203125 -19.757812 53.054688 -15.253906 50.765625 -11.359375 C 48.484375 -7.472656 45.363281 -4.488281 41.40625 -2.40625 C 37.457031 -0.320312 33.046875 0.71875 28.171875 0.71875 Z M 28.171875 -12.484375 C 31.085938 -12.484375 33.566406 -13.550781 35.609375 -15.6875 C 37.660156 -17.832031 38.6875 -20.894531 38.6875 -24.875 C 38.6875 -28.851562 37.691406 -31.910156 35.703125 -34.046875 C 33.710938 -36.191406 31.265625 -37.265625 28.359375 -37.265625 C 25.378906 -37.265625 22.910156 -36.207031 20.953125 -34.09375 C 18.992188 -31.988281 18.015625 -28.914062 18.015625 -24.875 C 18.015625 -20.894531 18.976562 -17.832031 20.90625 -15.6875 C 22.84375 -13.550781 25.265625 -12.484375 28.171875 -12.484375 Z M 28.171875 -12.484375 "/></g></g></g></svg>